<?xml version="1.0" encoding="UTF-8"?>
<svg id="Layer_1" xmlns="http://www.w3.org/2000/svg" version="1.1" viewBox="0 0 986 374.4">
  <!-- Generator: Adobe Illustrator 29.4.0, SVG Export Plug-In . SVG Version: 2.1.0 Build 152)  -->
  <defs>
    <style>
      .st0 {
        fill: #ff0;
      }

      .st1 {
        fill: red;
      }
    </style>
  </defs>
  <rect class="st0" x="0" y="0" width="197.2" height="374.4"/>
  <rect class="st1" x="197.2" y="0" width="197.2" height="374.4"/>
  <rect class="st0" x="394.4" y="0" width="197.2" height="374.4"/>
  <rect class="st1" x="591.6" y="0" width="197.2" height="374.4"/>
  <rect class="st0" x="788.8" y="0" width="197.2" height="374.4"/>
  <g>
    <path d="M62.1,27.6h5l1.5,8h0l1.8-8h4.9v14.2h-3.6v-10.5h0l-2.5,10.5h-2.2l-2.3-10.9h0v10.9h-2.8v-14.2Z"/>
    <path d="M82.1,27.3c4.2,0,5.5,3.8,5.5,7.4s-1.3,7.4-5.5,7.4-5.5-3.8-5.5-7.4,1.3-7.4,5.5-7.4ZM82.1,39.5c1.7,0,1.7-2,1.7-4.8s0-4.8-1.7-4.8-1.7,2-1.7,4.8,0,4.8,1.7,4.8Z"/>
    <path d="M88.7,27.6h3l4.1,7.7h0v-7.7h2.9v14.2h-2.9l-4.2-7.9h0v7.9h-2.9v-14.2Z"/>
    <path d="M100.6,27.6h3.9c4.4,0,6.5,2.7,6.5,6.9s-1.7,7.3-6.1,7.3h-4.3v-14.2ZM104.2,39.3h.4c2.5,0,2.5-3.1,2.5-5s-.2-4.2-2.6-4.2h-.3v9.2Z"/>
    <path d="M114.3,27.6h4.7l3,14.2h-3.6l-.6-2.9h-3.3l-.6,2.9h-3l3.3-14.2ZM115.1,36.4h2.3l-1-5.8h0l-1.2,5.8Z"/>
    <path d="M124.6,36.3l-3.6-8.7h3.8l1.9,5.6,2.3-5.6h3.2l-3.9,8.5v5.7h-3.6v-5.5Z"/>
  </g>
  <g>
    <path d="M258.7,27.6h10v2.8h-3.2v11.5h-3.6v-11.5h-3.2v-2.8Z"/>
    <path d="M279.1,37.3c0,3.2-1.8,4.8-4.9,4.8s-4.7-1.7-4.7-4.8v-9.7h3.6v9.9c0,1.1.4,2,1.6,2s1.5-1.1,1.5-2.2v-9.7h3v9.7Z"/>
    <path d="M281,27.6h9v2.8h-5.4v2.9h3.6v2.8h-3.6v3h5.4v2.9h-9v-14.2Z"/>
    <path d="M292.9,37.3c.5,1.2,1.1,2,2.5,2s1.5-.5,1.5-1.2c0-2.9-6.3-1.3-6.3-6.8s2.1-4,4.6-4,4.2,1.4,4.8,3.1l-2.9,1.2c-.4-.8-.9-1.6-2-1.6s-1.2.4-1.2,1.2c0,2,6.4,1.6,6.4,6s-2.4,4.8-5.2,4.8-4.4-1.3-5.2-3.6l3-1.2Z"/>
    <path d="M301.4,27.6h3.9c4.4,0,6.5,2.7,6.5,6.9s-1.7,7.3-6.1,7.3h-4.3v-14.2ZM305,39.3h.4c2.5,0,2.5-3.1,2.5-5s-.2-4.2-2.6-4.2h-.3v9.2Z"/>
    <path d="M315.1,27.6h4.7l3,14.2h-3.6l-.6-2.9h-3.3l-.6,2.9h-3l3.3-14.2ZM315.8,36.4h2.3l-1-5.8h0l-1.2,5.8Z"/>
    <path d="M325.3,36.3l-3.6-8.7h3.8l1.9,5.6,2.3-5.6h3.2l-3.9,8.5v5.7h-3.6v-5.5Z"/>
  </g>
  <g>
    <path d="M444.1,27.6h3.5l1.4,8.8h0l1.8-8.8h3.2l1.6,8.8h0l1.6-8.8h2.8l-3.1,14.2h-3.1l-1.7-9.5h0l-1.9,9.5h-3.1l-3-14.2Z"/>
    <path d="M461,27.6h9v2.8h-5.4v2.9h3.6v2.8h-3.6v3h5.4v2.9h-9v-14.2Z"/>
    <path d="M471,27.6h3.9c4.4,0,6.5,2.7,6.5,6.9s-1.7,7.3-6.1,7.3h-4.3v-14.2ZM474.6,39.3h.4c2.5,0,2.5-3.1,2.5-5s-.2-4.2-2.6-4.2h-.3v9.2Z"/>
    <path d="M482.4,27.6h3l4.1,7.7h0v-7.7h2.9v14.2h-2.9l-4.2-7.9h0v7.9h-2.9v-14.2Z"/>
    <path d="M494.3,27.6h9v2.8h-5.4v2.9h3.6v2.8h-3.6v3h5.4v2.9h-9v-14.2Z"/>
    <path d="M506.2,37.3c.5,1.2,1.1,2,2.5,2s1.5-.5,1.5-1.2c0-2.9-6.3-1.3-6.3-6.8s2.1-4,4.6-4,4.2,1.4,4.8,3.1l-2.9,1.2c-.4-.8-.9-1.6-2-1.6s-1.2.4-1.2,1.2c0,2,6.4,1.6,6.4,6s-2.4,4.8-5.2,4.8-4.4-1.3-5.2-3.6l3-1.2Z"/>
    <path d="M514.7,27.6h3.9c4.4,0,6.5,2.7,6.5,6.9s-1.7,7.3-6.1,7.3h-4.3v-14.2ZM518.3,39.3h.4c2.5,0,2.5-3.1,2.5-5s-.2-4.2-2.6-4.2h-.3v9.2Z"/>
    <path d="M528.4,27.6h4.7l3,14.2h-3.6l-.6-2.9h-3.3l-.6,2.9h-3l3.3-14.2ZM529.2,36.4h2.3l-1-5.8h0l-1.2,5.8Z"/>
    <path d="M538.6,36.3l-3.6-8.7h3.8l1.9,5.6,2.3-5.6h3.2l-3.9,8.5v5.7h-3.6v-5.5Z"/>
  </g>
  <g>
    <path d="M650.8,27.6h10v2.8h-3.2v11.5h-3.6v-11.5h-3.2v-2.8Z"/>
    <path d="M661.5,27.6h3.6v5.5h2.8v-5.5h3.6v14.2h-3.6v-5.8h-2.8v5.8h-3.6v-14.2Z"/>
    <path d="M683,37.3c0,3.2-1.8,4.8-4.9,4.8s-4.7-1.7-4.7-4.8v-9.7h3.6v9.9c0,1.1.4,2,1.6,2s1.5-1.1,1.5-2.2v-9.7h3v9.7Z"/>
    <path d="M684.9,27.6h5.4c2.7,0,4.8,1.2,4.8,4s-1,2.8-2.4,3.3l2.4,6.9h-3.6l-1.8-6.2h-1.2v6.2h-3.6v-14.2ZM688.5,33.4h.7c1.4,0,2.2-.4,2.2-1.6s-1.1-1.6-2.3-1.6h-.6v3.2Z"/>
    <path d="M697.9,37.3c.5,1.2,1.1,2,2.5,2s1.5-.5,1.5-1.2c0-2.9-6.3-1.3-6.3-6.8s2.1-4,4.6-4,4.2,1.4,4.8,3.1l-2.9,1.2c-.4-.8-.9-1.6-2-1.6s-1.2.4-1.2,1.2c0,2,6.4,1.6,6.4,6s-2.4,4.8-5.2,4.8-4.4-1.3-5.2-3.6l3-1.2Z"/>
    <path d="M706.4,27.6h3.9c4.4,0,6.5,2.7,6.5,6.9s-1.7,7.3-6.1,7.3h-4.3v-14.2ZM710,39.3h.4c2.5,0,2.5-3.1,2.5-5s-.2-4.2-2.6-4.2h-.3v9.2Z"/>
    <path d="M720.1,27.6h4.7l3,14.2h-3.6l-.6-2.9h-3.3l-.6,2.9h-3l3.3-14.2ZM720.8,36.4h2.3l-1-5.8h0l-1.2,5.8Z"/>
    <path d="M730.3,36.3l-3.6-8.7h3.8l1.9,5.6,2.3-5.6h3.2l-3.9,8.5v5.7h-3.6v-5.5Z"/>
  </g>
  <g>
    <path d="M865.2,27.6h8.6v2.8h-5v2.9h3.5v2.8h-3.5v5.8h-3.6v-14.2Z"/>
    <path d="M874.8,27.6h5.4c2.7,0,4.8,1.2,4.8,4s-1,2.8-2.4,3.3l2.4,6.9h-3.6l-1.8-6.2h-1.2v6.2h-3.6v-14.2ZM878.4,33.4h.7c1.4,0,2.2-.4,2.2-1.6s-1.1-1.6-2.3-1.6h-.6v3.2Z"/>
    <path d="M886,27.6h3.6v14.2h-3.6v-14.2Z"/>
    <path d="M891.5,27.6h3.9c4.4,0,6.5,2.7,6.5,6.9s-1.7,7.3-6.1,7.3h-4.3v-14.2ZM895.1,39.3h.4c2.5,0,2.5-3.1,2.5-5s-.2-4.2-2.6-4.2h-.3v9.2Z"/>
    <path d="M905.2,27.6h4.7l3,14.2h-3.6l-.6-2.9h-3.3l-.6,2.9h-3l3.3-14.2ZM906,36.4h2.3l-1-5.8h0l-1.2,5.8Z"/>
    <path d="M915.5,36.3l-3.6-8.7h3.8l1.9,5.6,2.3-5.6h3.2l-3.9,8.5v5.7h-3.6v-5.5Z"/>
  </g>
</svg>